<svg xmlns="http://www.w3.org/2000/svg" viewBox="0 0 760 210" width="760" height="210" font-family="sans-serif">
<text x="348" y="50" text-anchor="end" fill="#1C2321" font-size="13">Cross-model transfer (per-poem r)</text>
<rect x="360" y="35" width="370" height="20" fill="#00000012" rx="4"/>
<rect x="360" y="35" width="0" height="20" fill="#2E6E5E" rx="4"><animate attributeName="width" from="0" to="352" dur="1.1s" begin="0.2s" fill="freeze"/></rect>
<text x="720" y="50" fill="#2E6E5E" font-size="13" font-weight="700">0.95</text>
<text x="348" y="90" text-anchor="end" fill="#1C2321" font-size="13">SAE convergent validity (CV r)</text>
<rect x="360" y="75" width="370" height="20" fill="#00000012" rx="4"/>
<rect x="360" y="75" width="0" height="20" fill="#2E6E5E" rx="4"><animate attributeName="width" from="0" to="174" dur="1.1s" begin="0.2s" fill="freeze"/></rect>
<text x="542" y="90" fill="#2E6E5E" font-size="13" font-weight="700">0.47</text>
<text x="348" y="130" text-anchor="end" fill="#1C2321" font-size="13">Behavioral bridge (probe->generation ρ)</text>
<rect x="360" y="115" width="370" height="20" fill="#00000012" rx="4"/>
<rect x="360" y="115" width="0" height="20" fill="#2E6E5E" rx="4"><animate attributeName="width" from="0" to="155" dur="1.1s" begin="0.2s" fill="freeze"/></rect>
<text x="523" y="130" fill="#2E6E5E" font-size="13" font-weight="700">0.42</text>
<text x="348" y="170" text-anchor="end" fill="#1C2321" font-size="13">Rescue recovery (fraction, any corner)</text>
<rect x="360" y="155" width="370" height="20" fill="#00000012" rx="4"/>
<rect x="360" y="155" width="0" height="20" fill="#8A6D1F" rx="4"><animate attributeName="width" from="0" to="56" dur="1.1s" begin="0.2s" fill="freeze"/></rect>
<text x="424" y="170" fill="#8A6D1F" font-size="13" font-weight="700">0.15</text>
<text x="360" y="196" fill="#5A6E66" font-size="11">effect sizes, E27–E30 · gold = the bounded-return finding</text></svg>